<svg xmlns="http://www.w3.org/2000/svg" viewBox="0 0 280 80" fill="none">
  <text x="0" y="52" font-family="'Inter', Arial, sans-serif" font-weight="900" font-size="52" fill="#000000" letter-spacing="2">AMS</text>
  <!-- C with stopwatch -->
  <g transform="translate(152, 5)">
    <!-- Stopwatch button -->
    <rect x="28" y="0" width="6" height="8" rx="1" fill="#000000"/>
    <!-- Stopwatch crown -->
    <path d="M20 8 C20 5 42 5 42 8 L42 12 C42 12 20 12 20 12 Z" fill="#000000"/>
    <!-- C letter -->
    <path d="M32 14 C18 14 6 24 6 40 C6 56 18 66 32 66 C40 66 47 63 51 58 L51 58 C51 58 44 52 44 52 C41 55 37 57 32 57 C23 57 16 50 16 40 C16 30 23 23 32 23 C37 23 41 25 44 28 L51 22 C47 17 40 14 32 14Z" fill="#000000"/>
    <!-- Red clock wedge -->
    <circle cx="32" cy="40" r="12" fill="none"/>
    <path d="M32 32 A8 8 0 0 1 40 40 L32 40 Z" fill="#a60008"/>
    <path d="M32 32 A8 8 0 0 0 24 40 L32 40 Z" fill="#a60008" opacity="0"/>
  </g>
  <!-- PERFORMANCE text -->
  <text x="2" y="74" font-family="'Inter', Arial, sans-serif" font-weight="400" font-size="16" fill="#000000" letter-spacing="8">PERFORMANCE</text>
</svg>